<svg width="18" height="14" viewBox="0 0 18 14" fill="none" xmlns="http://www.w3.org/2000/svg">
<path fill-rule="evenodd" clip-rule="evenodd" d="M7.78618 12.4238L8.41626 12.6936C8.64561 12.791 8.88924 12.8426 9.13865 12.8426H9.22176C10.2338 12.8426 11.0564 12.02 11.0564 11.0079V10.9822C11.0564 10.6984 10.9906 10.4174 10.8616 10.1623L10.3684 9.17337H11.8591L12.206 10.8217C12.4926 12.5187 13.9604 13.7599 15.6804 13.7599H15.9012C16.5174 13.7599 17.0191 13.2583 17.0191 12.642V9.86134C17.0191 9.22774 16.506 8.71467 15.8724 8.71467H12.2318L11.7903 6.61626L15.6001 6.14038C16.1018 6.07732 16.4658 5.6158 16.3368 5.12844C15.56 2.1758 12.8739 0 9.68046 0C9.02346 0 8.388 0.0921934 7.78618 0.26433V12.4238ZM11.7645 8.71467L11.3346 6.67357V6.67072L10.4 6.78827C9.98723 6.83986 9.68046 7.18958 9.68046 7.6024C9.68046 7.72853 9.7091 7.85469 9.76646 7.96931L10.1391 8.71467H11.7645ZM12.3293 9.17337L12.6188 10.5493H16.5604V9.86134C16.5604 9.48003 16.2537 9.17337 15.8724 9.17337H12.3293ZM16.5604 11.0079H12.7134C13.0603 12.3467 14.2757 13.3013 15.6804 13.3013H15.9012C16.2652 13.3013 16.5604 13.006 16.5604 12.642V11.0079Z" fill="url(#paint0_linear_426_27784)"/>
<path d="M3.70887 2.0808H5.43687V2.61777H2.752C2.02958 2.61777 1.4341 3.16123 1.35208 3.86159C1.58339 3.79468 1.8279 3.75882 2.08077 3.75882H4.56694C4.82497 3.75882 5.03414 3.96801 5.03414 4.22606V6.37659H4.49716V4.29582H2.08077C0.931603 4.29582 0 5.2274 0 6.37659C0 7.52578 0.931594 8.45739 2.08077 8.45739H2.48351V6.37659H3.02048V8.60661C3.02048 8.82071 2.84689 8.99436 2.63277 8.99436H2.08077C1.82438 8.99436 1.5766 8.95743 1.34243 8.88877V9.39712C1.34243 10.1756 1.97352 10.8066 2.75199 10.8066H3.15557C3.15501 10.7843 3.15473 10.762 3.15473 10.7395H3.69171C3.69171 10.762 3.69206 10.7843 3.69277 10.8066H5.43687V11.3436H3.78075C4.0396 12.1982 4.83339 12.8203 5.77248 12.8203H6.7793C7.18708 12.8203 7.51765 12.4897 7.51765 12.0819V1.00683C7.51765 0.599076 7.18708 0.268502 6.7793 0.268502H5.77248C4.71427 0.268502 3.84057 1.05842 3.70887 2.0808Z" fill="url(#paint1_linear_426_27784)"/>
<defs>
<linearGradient id="paint0_linear_426_27784" x1="-2.38683" y1="-17.0279" x2="20.3816" y2="-15.0933" gradientUnits="userSpaceOnUse">
<stop stop-color="#8E2DE2"/>
<stop offset="1" stop-color="#4A00E0"/>
</linearGradient>
<linearGradient id="paint1_linear_426_27784" x1="-2.38683" y1="-17.0279" x2="20.3816" y2="-15.0933" gradientUnits="userSpaceOnUse">
<stop stop-color="#8E2DE2"/>
<stop offset="1" stop-color="#4A00E0"/>
</linearGradient>
</defs>
</svg>
